<?xml version="1.0" encoding="UTF-8"?>
<svg xmlns="http://www.w3.org/2000/svg" width="200" height="220" viewBox="0 0 200 220">
  <ellipse cx="100" cy="209" rx="62" ry="6" fill="rgba(40,55,55,0.12)"/>
  <ellipse cx="100" cy="195" rx="64" ry="14" fill="#5A8A52"/>
  <ellipse cx="100" cy="192" rx="58" ry="11" fill="#9AC080"/>
  <path d="M 100.00 190.00 C 94.82 187.66 88.93 178.06 87.88 166.41 C 88.18 158.88 89.69 155.86 90.68 155.23 C 91.86 155.28 94.67 157.14 98.70 163.51 C 103.61 174.12 103.32 185.38 100.00 190.00 Z" fill="#E46F2E"/>
  <path d="M 100.00 190.00 C 96.68 185.38 96.39 174.12 101.30 163.51 C 105.33 157.14 108.14 155.28 109.32 155.23 C 110.31 155.86 111.82 158.88 112.12 166.41 C 111.07 178.06 105.18 187.66 100.00 190.00 Z" fill="#E46F2E"/>
  <path d="M 100.00 190.00 C 95.05 185.80 91.45 173.20 93.70 159.76 C 96.22 151.36 98.74 148.42 100.00 148.00 C 101.26 148.42 103.78 151.36 106.30 159.76 C 108.55 173.20 104.95 185.80 100.00 190.00 Z" fill="#F2A56C"/>
  <ellipse cx="100" cy="190" rx="6" ry="3.7" fill="#F4D27A"/>
  <ellipse cx="96.2" cy="190.6" rx="1.0" ry="0.8" fill="#B8702E"/>
  <ellipse cx="98.1" cy="190.1" rx="1.0" ry="0.8" fill="#B8702E"/>
  <ellipse cx="100.0" cy="189.6" rx="1.0" ry="0.8" fill="#B8702E"/>
  <ellipse cx="101.9" cy="190.1" rx="1.0" ry="0.8" fill="#B8702E"/>
  <ellipse cx="103.8" cy="190.6" rx="1.0" ry="0.8" fill="#B8702E"/>
</svg>
