<?xml version="1.0" encoding="UTF-8"?>
<svg xmlns="http://www.w3.org/2000/svg" width="200" height="220" viewBox="0 0 200 220">
  <ellipse cx="100" cy="209" rx="62" ry="6" fill="rgba(40,55,55,0.12)"/>
  <ellipse cx="100" cy="195" rx="64" ry="14" fill="#5A8A52"/>
  <ellipse cx="100" cy="192" rx="58" ry="11" fill="#9AC080"/>
  <path d="M 100.00 190.00 C 96.69 193.10 89.01 193.94 82.04 190.26 C 77.91 187.13 76.80 184.80 76.82 183.79 C 77.30 182.90 79.43 181.45 84.58 180.79 C 92.45 181.09 98.68 185.66 100.00 190.00 Z" fill="#E46F2E"/>
  <path d="M 100.00 190.00 C 101.32 185.66 107.55 181.09 115.42 180.79 C 120.57 181.45 122.70 182.90 123.18 183.79 C 123.20 184.80 122.09 187.13 117.96 190.26 C 110.99 193.94 103.31 193.10 100.00 190.00 Z" fill="#E46F2E"/>
  <path d="M 100.00 190.00 C 94.77 191.50 85.23 188.11 78.40 180.23 C 74.73 174.52 74.35 171.38 74.78 170.30 C 75.73 169.61 78.87 169.23 85.29 171.40 C 94.59 176.13 100.19 184.56 100.00 190.00 Z" fill="#E46F2E"/>
  <path d="M 100.00 190.00 C 99.81 184.56 105.41 176.13 114.71 171.40 C 121.13 169.23 124.27 169.61 125.22 170.30 C 125.65 171.38 125.27 174.52 121.60 180.23 C 114.77 188.11 105.23 191.50 100.00 190.00 Z" fill="#E46F2E"/>
  <path d="M 100.00 190.00 C 93.71 189.01 84.60 180.42 80.14 168.21 C 78.33 160.02 79.11 156.34 80.00 155.36 C 81.29 155.08 84.87 156.24 91.06 161.91 C 99.40 171.87 102.29 184.06 100.00 190.00 Z" fill="#F2A56C"/>
  <path d="M 100.00 190.00 C 97.71 184.06 100.60 171.87 108.94 161.91 C 115.13 156.24 118.71 155.08 120.00 155.36 C 120.89 156.34 121.67 160.02 119.86 168.21 C 115.40 180.42 106.29 189.01 100.00 190.00 Z" fill="#F2A56C"/>
  <path d="M 100.00 190.00 C 93.71 186.84 87.05 174.76 86.57 160.47 C 87.48 151.28 89.57 147.68 90.85 146.96 C 92.31 147.10 95.69 149.53 100.26 157.56 C 105.63 170.81 104.47 184.55 100.00 190.00 Z" fill="#F2A56C"/>
  <path d="M 100.00 190.00 C 95.53 184.55 94.37 170.81 99.74 157.56 C 104.31 149.53 107.69 147.10 109.15 146.96 C 110.43 147.68 112.52 151.28 113.43 160.47 C 112.95 174.76 106.29 186.84 100.00 190.00 Z" fill="#F2A56C"/>
  <path d="M 100.00 190.00 C 94.50 185.20 90.50 170.80 93.00 155.44 C 95.80 145.84 98.60 142.48 100.00 142.00 C 101.40 142.48 104.20 145.84 107.00 155.44 C 109.50 170.80 105.50 185.20 100.00 190.00 Z" fill="#FBE0C2"/>
  <ellipse cx="100" cy="190" rx="6" ry="3.7" fill="#F4D27A"/>
  <ellipse cx="96.2" cy="190.6" rx="1.0" ry="0.8" fill="#B8702E"/>
  <ellipse cx="98.1" cy="190.1" rx="1.0" ry="0.8" fill="#B8702E"/>
  <ellipse cx="100.0" cy="189.6" rx="1.0" ry="0.8" fill="#B8702E"/>
  <ellipse cx="101.9" cy="190.1" rx="1.0" ry="0.8" fill="#B8702E"/>
  <ellipse cx="103.8" cy="190.6" rx="1.0" ry="0.8" fill="#B8702E"/>
</svg>
